<svg width="341" height="88" viewBox="0 0 341 88" fill="none" xmlns="http://www.w3.org/2000/svg">
<path fill-rule="evenodd" clip-rule="evenodd" d="M68 67.3699L46 0L24 67.3699H40.9194V82.9167H54.7389V67.3699H68Z" fill="url(#paint0_linear)"/>
<path d="M88.496 77.9167V62.7487H103.04V59.1967H88.496V47.9647H104.432V44.4127H84.464V77.9167H88.496ZM112.972 47.3407C114.605 47.3407 115.325 46.4767 115.325 45.1807V44.5567C115.325 43.2607 114.605 42.3967 112.972 42.3967C111.341 42.3967 110.621 43.2607 110.621 44.5567V45.1807C110.621 46.4767 111.341 47.3407 112.972 47.3407ZM111.052 77.9167H114.893V53.1487H111.052V77.9167ZM127.053 77.9167V61.1167C127.053 58.7647 129.549 56.9887 133.676 56.9887H135.933V53.1487H134.444C130.413 53.1487 128.157 55.3567 127.292 57.7087H127.053V53.1487H123.212V77.9167H127.053ZM150.075 78.4927C154.731 78.4927 158.283 76.1887 159.867 72.8287L157.131 70.8607C155.835 73.5967 153.435 75.1327 150.315 75.1327C145.707 75.1327 142.971 71.9167 142.971 67.6447V66.4927H160.779V64.6687C160.779 57.6607 156.699 52.5727 150.075 52.5727C143.355 52.5727 138.939 57.6607 138.939 65.5327C138.939 73.4047 143.355 78.4927 150.075 78.4927ZM150.075 55.7887C154.011 55.7887 156.651 58.7167 156.651 63.0847V63.6127H142.971V63.2767C142.971 58.9567 145.899 55.7887 150.075 55.7887ZM176.068 77.9167L180.532 61.2127L183.7 48.9247H183.796L186.868 61.2127L191.236 77.9167H195.7L204.292 44.4127H200.164L196.372 60.5407L193.492 73.0207H193.348L190.228 60.5407L186.148 44.4127H181.54L177.316 60.5407L174.196 73.0687H174.1L171.316 60.5407L167.716 44.4127H163.444L171.604 77.9167H176.068ZM229.165 77.9167V74.5567H226.333V60.9247C226.333 55.6927 222.781 52.5727 216.829 52.5727C212.365 52.5727 209.389 54.7807 208.045 57.4207L210.349 59.5807C211.693 57.3247 213.661 55.8847 216.637 55.8847C220.573 55.8847 222.493 57.8047 222.493 61.3087V63.7567H217.597C210.397 63.7567 207.037 66.3487 207.037 71.0047C207.037 75.6127 210.109 78.4927 215.341 78.4927C218.797 78.4927 221.437 76.9087 222.493 73.8847H222.733C223.021 76.1887 224.173 77.9167 227.005 77.9167H229.165ZM215.965 75.2287C212.989 75.2287 211.069 73.8367 211.069 71.3887V70.3807C211.069 67.9807 213.037 66.6367 217.405 66.6367H222.493V70.7167C222.493 73.2607 219.757 75.2287 215.965 75.2287ZM245.078 77.9167V74.5567H240.038V56.5087H245.462V53.1487H240.038V46.2847H236.582V50.8927C236.582 52.5727 236.054 53.1487 234.422 53.1487H232.118V56.5087H236.198V73.8367C236.198 76.2367 237.638 77.9167 240.278 77.9167H245.078ZM260.822 78.4927C265.526 78.4927 268.742 76.1887 270.326 72.6367L267.542 70.7647C266.198 73.5967 263.942 75.0847 260.822 75.0847C256.262 75.0847 253.91 71.9647 253.91 67.6447V63.4207C253.91 59.1007 256.262 55.9807 260.822 55.9807C263.846 55.9807 265.958 57.4687 266.87 60.0127L270.086 58.3807C268.646 54.9727 265.718 52.5727 260.822 52.5727C253.862 52.5727 249.782 57.6127 249.782 65.5327C249.782 73.4527 253.862 78.4927 260.822 78.4927ZM275.907 77.9167H279.747V60.7327C279.747 57.5647 282.723 56.0287 285.795 56.0287C289.491 56.0287 291.411 58.2847 291.411 62.7007V77.9167H295.251V62.0287C295.251 56.0287 292.035 52.5727 286.947 52.5727C283.251 52.5727 281.139 54.3967 279.939 57.1807H279.747V42.3967H275.907V77.9167Z" fill="white"/>
<line y1="86.9167" x2="341" y2="86.9167" stroke="#B05000" stroke-width="2"/>
<defs>
<linearGradient id="paint0_linear" x1="42.1388" y1="58.3262" x2="71.4036" y2="47.7584" gradientUnits="userSpaceOnUse">
<stop stop-color="#3CE500"/>
<stop offset="1" stop-color="#E50E00"/>
</linearGradient>
</defs>
</svg>
