<svg width="135" height="48" viewBox="0 0 135 48" fill="none" xmlns="http://www.w3.org/2000/svg">
<path d="M24.232 30V18.832H31.64V20.992H26.664V23.28H30.904V25.424H26.664V30H24.232ZM34.8074 20.704C34.3274 20.704 33.9754 20.5973 33.7514 20.384C33.538 20.16 33.4314 19.8773 33.4314 19.536V19.184C33.4314 18.8427 33.538 18.5653 33.7514 18.352C33.9754 18.128 34.3274 18.016 34.8074 18.016C35.2874 18.016 35.634 18.128 35.8474 18.352C36.0714 18.5653 36.1834 18.8427 36.1834 19.184V19.536C36.1834 19.8773 36.0714 20.16 35.8474 20.384C35.634 20.5973 35.2874 20.704 34.8074 20.704ZM33.6234 21.6H35.9914V30H33.6234V21.6ZM38.3615 30V21.6H40.7295V23.424H40.8095C40.8522 23.1893 40.9268 22.9653 41.0335 22.752C41.1402 22.528 41.2788 22.3307 41.4495 22.16C41.6308 21.9893 41.8442 21.856 42.0895 21.76C42.3348 21.6533 42.6228 21.6 42.9535 21.6H43.3695V23.808H42.7775C42.0842 23.808 41.5668 23.8987 41.2255 24.08C40.8948 24.2613 40.7295 24.5973 40.7295 25.088V30H38.3615ZM48.4161 30.192C47.7761 30.192 47.2055 30.0907 46.7041 29.888C46.2028 29.6747 45.7761 29.3813 45.4241 29.008C45.0828 28.624 44.8215 28.16 44.6401 27.616C44.4695 27.072 44.3841 26.464 44.3841 25.792C44.3841 25.1307 44.4695 24.5333 44.6401 24C44.8108 23.456 45.0615 22.992 45.3921 22.608C45.7335 22.224 46.1495 21.9307 46.6401 21.728C47.1308 21.5147 47.6908 21.408 48.3201 21.408C49.0135 21.408 49.6055 21.5253 50.0961 21.76C50.5975 21.9947 51.0028 22.3093 51.3121 22.704C51.6321 23.0987 51.8615 23.5573 52.0001 24.08C52.1495 24.592 52.2241 25.1307 52.2241 25.696V26.4H46.8321V26.528C46.8321 27.0827 46.9815 27.5253 47.2801 27.856C47.5788 28.176 48.0481 28.336 48.6881 28.336C49.1788 28.336 49.5788 28.24 49.8881 28.048C50.1975 27.8453 50.4855 27.6053 50.7521 27.328L51.9361 28.8C51.5628 29.2373 51.0721 29.5787 50.4641 29.824C49.8668 30.0693 49.1841 30.192 48.4161 30.192ZM48.3681 23.152C47.8881 23.152 47.5095 23.312 47.2321 23.632C46.9655 23.9413 46.8321 24.3573 46.8321 24.88V25.008H49.7761V24.864C49.7761 24.352 49.6588 23.9413 49.4241 23.632C49.2001 23.312 48.8481 23.152 48.3681 23.152ZM55.632 30L53.104 18.832H55.504L56.56 24.192L57.152 27.296H57.2L57.904 24.192L59.136 18.832H61.792L63.04 24.192L63.728 27.296H63.776L64.368 24.192L65.44 18.832H67.744L65.152 30H62.384L60.976 23.952L60.432 21.504H60.384L59.824 23.952L58.416 30H55.632ZM75.1901 30C74.7635 30 74.4061 29.8667 74.1181 29.6C73.8408 29.3333 73.6648 28.976 73.5901 28.528H73.4941C73.3661 29.072 73.0835 29.488 72.6461 29.776C72.2088 30.0533 71.6701 30.192 71.0301 30.192C70.1875 30.192 69.5421 29.968 69.0941 29.52C68.6461 29.072 68.4221 28.48 68.4221 27.744C68.4221 26.8587 68.7421 26.2027 69.3821 25.776C70.0328 25.3387 70.9128 25.12 72.0221 25.12H73.3501V24.592C73.3501 24.1867 73.2435 23.8667 73.0301 23.632C72.8168 23.3867 72.4595 23.264 71.9581 23.264C71.4888 23.264 71.1155 23.3653 70.8381 23.568C70.5608 23.7707 70.3315 24 70.1501 24.256L68.7421 23.008C69.0835 22.5067 69.5101 22.1173 70.0221 21.84C70.5448 21.552 71.2488 21.408 72.1341 21.408C73.3288 21.408 74.2248 21.6693 74.8221 22.192C75.4195 22.7147 75.7181 23.4773 75.7181 24.48V28.16H76.5021V30H75.1901ZM71.9101 28.544C72.3048 28.544 72.6408 28.4587 72.9181 28.288C73.2061 28.1173 73.3501 27.84 73.3501 27.456V26.464H72.1981C71.2701 26.464 70.8061 26.7787 70.8061 27.408V27.648C70.8061 27.9573 70.9021 28.1867 71.0941 28.336C71.2861 28.4747 71.5581 28.544 71.9101 28.544ZM81.1017 30C80.2804 30 79.6564 29.792 79.2297 29.376C78.8137 28.96 78.6057 28.352 78.6057 27.552V23.44H77.4217V21.6H78.0137C78.3337 21.6 78.5524 21.5253 78.6697 21.376C78.7871 21.216 78.8457 20.992 78.8457 20.704V19.328H80.9737V21.6H82.6377V23.44H80.9737V28.16H82.5097V30H81.1017ZM87.7722 30.192C87.1429 30.192 86.5829 30.0907 86.0922 29.888C85.6016 29.6747 85.1909 29.3813 84.8602 29.008C84.5296 28.624 84.2789 28.16 84.1082 27.616C83.9376 27.072 83.8522 26.464 83.8522 25.792C83.8522 25.12 83.9376 24.5173 84.1082 23.984C84.2789 23.44 84.5296 22.976 84.8602 22.592C85.1909 22.208 85.6016 21.9147 86.0922 21.712C86.5829 21.5093 87.1429 21.408 87.7722 21.408C88.6256 21.408 89.3349 21.6 89.9002 21.984C90.4762 22.368 90.8869 22.9067 91.1322 23.6L89.2122 24.432C89.1376 24.112 88.9829 23.84 88.7482 23.616C88.5136 23.392 88.1882 23.28 87.7722 23.28C87.2922 23.28 86.9296 23.44 86.6842 23.76C86.4389 24.0693 86.3162 24.4907 86.3162 25.024V26.592C86.3162 27.1253 86.4389 27.5467 86.6842 27.856C86.9296 28.1653 87.2922 28.32 87.7722 28.32C88.1989 28.32 88.5349 28.208 88.7802 27.984C89.0362 27.7493 89.2229 27.4453 89.3402 27.072L91.1802 27.872C90.9029 28.672 90.4709 29.2587 89.8842 29.632C89.3082 30.0053 88.6042 30.192 87.7722 30.192ZM92.8059 18.16H95.1739V23.024H95.2699C95.4192 22.5867 95.6805 22.208 96.0539 21.888C96.4272 21.568 96.9445 21.408 97.6059 21.408C98.4699 21.408 99.1205 21.696 99.5579 22.272C100.006 22.848 100.23 23.6693 100.23 24.736V30H97.8619V24.928C97.8619 24.384 97.7765 23.984 97.6059 23.728C97.4352 23.4613 97.1312 23.328 96.6939 23.328C96.5019 23.328 96.3152 23.3547 96.1339 23.408C95.9525 23.4507 95.7872 23.5253 95.6379 23.632C95.4992 23.7387 95.3872 23.872 95.3019 24.032C95.2165 24.1813 95.1739 24.3573 95.1739 24.56V30H92.8059V18.16Z" fill="#F5F5F5"/>
<path fill-rule="evenodd" clip-rule="evenodd" d="M16.1628 29.5606L11.0814 14L6 29.5606H9.90747V33.1515H13.0994V29.5606H16.1628Z" fill="url(#paint0_linear)"/>
<rect x="118" y="12" width="1" height="24" fill="#393939"/>
<defs>
<linearGradient id="paint0_linear" x1="10.1896" y1="27.4718" x2="16.9489" y2="25.0309" gradientUnits="userSpaceOnUse">
<stop stop-color="#3CE500"/>
<stop offset="1" stop-color="#E50E00"/>
</linearGradient>
</defs>
</svg>
